<svg width="24" height="20" viewBox="0 0 24 20" fill="none" xmlns="http://www.w3.org/2000/svg">
<path d="M23 1C22.0424 1.67548 20.9821 2.19211 19.86 2.53C19.2577 1.83751 18.4573 1.34669 17.567 1.12393C16.6767 0.901161 15.7395 0.957196 14.8821 1.28445C14.0247 1.61171 13.2884 2.1944 12.773 2.95372C12.2575 3.71303 11.9877 4.61234 12 5.53V6.53C10.2426 6.57557 8.50127 6.18581 6.93101 5.39545C5.36074 4.60508 4.01032 3.43864 3 2C3 2 -1 11 8 15C5.94053 16.398 3.48716 17.0989 1 17C10 22 21 17 21 5.5C20.9991 5.22145 20.9723 4.94359 20.92 4.67C21.9406 3.66349 22.6608 2.39271 23 1V1Z" stroke="#313037" stroke-width="2" stroke-linecap="round" stroke-linejoin="round"/>
</svg>
